<?xml version="1.0" encoding="utf-8"?>
<!-- Generator: Adobe Illustrator 20.1.0, SVG Export Plug-In . SVG Version: 6.00 Build 0)  -->
<svg version="1.1" id="Layer_1" xmlns="http://www.w3.org/2000/svg" xmlns:xlink="http://www.w3.org/1999/xlink" x="0px" y="0px"
	 width="758.453px" height="622.849px" viewBox="0 0 758.453 622.849" enable-background="new 0 0 758.453 622.849"
	 xml:space="preserve">
<g>
	<path fill="#87281B" d="M23.854,9.323l-0.02,52.819l-10.291-0.004l0.02-52.819L0.7,9.315l0.003-8.803l35.97,0.014L36.67,9.328
		L23.854,9.323z"/>
	<path fill="#87281B" d="M67.145,35.028L52.63,35.022l-0.01,27.132L42.329,62.15l0.023-61.623l10.291,0.004l-0.01,25.688
		l14.514,0.006l0.01-25.688l10.292,0.004l-0.023,61.623l-10.292-0.004L67.145,35.028z"/>
	<path fill="#87281B" d="M117.545,0.556l-0.003,8.803L97.785,9.352l-0.006,16.207l14.563,0.005l-0.003,8.803l-14.563-0.005
		l-0.007,19.006l19.757,0.007l-0.003,8.803l-30.048-0.012l0.023-61.622L117.545,0.556z"/>
</g>
<g>
	<defs>
		<rect id="SVGID_1_" x="-21.705" y="-32.775" width="803.845" height="660.526"/>
	</defs>
	<clipPath id="SVGID_2_">
		<use xlink:href="#SVGID_1_"  overflow="visible"/>
	</clipPath>
	<g clip-path="url(#SVGID_2_)">
		<text transform="matrix(1 0 0 1 129.1987 595.6061)" font-family="'U.S.101'" font-size="77.1782px"> </text>
	</g>
	<g clip-path="url(#SVGID_2_)">
		<text transform="matrix(1 0 0 1 336.3471 595.6061)" font-family="'U.S.101'" font-size="77.1782px"> </text>
	</g>
	<g clip-path="url(#SVGID_2_)">
		<g>
			<path fill="#87281B" d="M577.068,544.167v7.349H561.73v13.528h11.306v7.349H561.73v15.865h15.338v7.349h-23.327v-51.439H577.068z
				"/>
			<path fill="#87281B" d="M608.219,544.167v44.091h15.828v7.349H600.23v-51.439H608.219z"/>
		</g>
		<g>
			<g>
				<g>
					<path fill="#87281B" d="M28.628,556.263l-7.612,2.261c-1.231-5.1-3.518-7.649-6.858-7.649c-1.432,0-2.638,0.478-3.618,1.432
						c-1.031,1.005-1.545,2.274-1.545,3.807c0,1.884,0.716,3.605,2.148,5.162c0.929,1.006,3.203,2.89,6.821,5.653
						c3.693,2.863,6.255,5.162,7.688,6.896c2.21,2.688,3.316,5.841,3.316,9.458c0,3.794-1.269,6.909-3.806,9.346
						c-2.588,2.487-6.017,3.731-10.288,3.731c-8.793,0-14.006-4.824-15.639-14.471l7.612-2.224c1.055,6.155,3.731,9.232,8.027,9.232
						c1.809,0,3.241-0.552,4.296-1.658c1.055-1.08,1.583-2.487,1.583-4.221c0-1.809-0.666-3.467-1.997-4.975
						c-1.106-1.281-2.99-2.964-5.653-5.049c-3.869-3.016-6.193-4.899-6.972-5.653c-3.568-3.441-5.351-7.197-5.351-11.268
						c0-4.045,1.444-7.248,4.333-9.609c2.437-2.035,5.464-3.053,9.082-3.053C21.606,543.413,26.417,547.697,28.628,556.263z"/>
				</g>
			</g>
			<g>
				<g>
					<path fill="#87281B" d="M55.488,584.414H44.521l-2.072,11.192h-7.801l9.873-51.439H55.45l10.401,51.439h-8.177L55.488,584.414z
						 M54.131,577.065l-4.221-23.025l-4.107,23.025H54.131z"/>
				</g>
			</g>
			<g>
				<g>
					<path fill="#87281B" d="M80.835,572.731v22.875h-7.989v-51.439h23.553v7.349H80.835v13.868H92.33v7.348H80.835z"/>
				</g>
			</g>
			<g>
				<g>
					<path fill="#87281B" d="M125.962,544.167v7.349h-15.338v13.528h11.306v7.349h-11.306v15.865h15.338v7.349h-23.327v-51.439
						H125.962z"/>
				</g>
			</g>
			<g>
				<g>
					<path fill="#87281B" d="M175.295,560.898h-7.952c0-0.477,0-0.829,0-1.055c0-5.979-2.01-8.969-6.029-8.969
						c-2.186,0-3.756,0.842-4.71,2.524c-0.579,1.056-0.93,2.186-1.055,3.392c-0.101,1.156-0.151,2.487-0.151,3.995v17.108
						c0,3.593,0.289,6.155,0.867,7.688c0.854,2.211,2.575,3.316,5.163,3.316c4.095,0,6.143-3.366,6.143-10.1
						c0-0.301,0-0.729,0-1.281h7.952c0.025,0.88,0.038,1.521,0.038,1.922c0,4.975-1.005,8.919-3.015,11.833
						c-2.362,3.392-6.067,5.088-11.117,5.088c-5.351,0-9.195-1.909-11.531-5.729c-1.231-1.984-1.959-4.183-2.186-6.595
						c-0.201-2.01-0.301-4.421-0.301-7.235v-14.357c0-4.924,0.314-8.341,0.942-10.251c1.105-3.416,3.115-5.841,6.03-7.272
						c2.01-1.005,4.321-1.508,6.934-1.508c4.371,0,7.775,1.345,10.212,4.032c2.537,2.814,3.806,6.746,3.806,11.796
						C175.333,559.642,175.32,560.196,175.295,560.898z"/>
				</g>
			</g>
			<g>
				<g>
					<path fill="#87281B" d="M204.054,584.414h-10.966l-2.072,11.192h-7.801l9.873-51.439h10.929l10.401,51.439h-8.177
						L204.054,584.414z M202.698,577.065l-4.221-23.025l-4.107,23.025H202.698z"/>
				</g>
				<g>
					<path fill="#87281B" d="M230.92,574.503v21.104h-7.989v-51.439h12.511c4.421,0,7.813,1.03,10.175,3.09
						c3.065,2.663,4.598,6.545,4.598,11.645c0,6.532-2.312,10.992-6.934,13.378l7.575,23.327h-8.366l-6.821-21.104H230.92z
						 M230.92,567.154h2.902c2.186,0,3.743-0.2,4.673-0.603c2.336-1.005,3.505-3.417,3.505-7.235c0-2.813-0.654-4.861-1.96-6.143
						c-0.753-0.778-1.671-1.256-2.751-1.433c-0.955-0.15-2.11-0.226-3.467-0.226h-2.902V567.154z"/>
				</g>
			</g>
			<g>
				<g>
					<path fill="#87281B" d="M286.942,556.263l-7.612,2.261c-1.231-5.1-3.518-7.649-6.858-7.649c-1.432,0-2.638,0.478-3.618,1.432
						c-1.031,1.005-1.545,2.274-1.545,3.807c0,1.884,0.716,3.605,2.148,5.162c0.929,1.006,3.203,2.89,6.821,5.653
						c3.693,2.863,6.255,5.162,7.688,6.896c2.21,2.688,3.316,5.841,3.316,9.458c0,3.794-1.269,6.909-3.806,9.346
						c-2.588,2.487-6.017,3.731-10.288,3.731c-8.793,0-14.006-4.824-15.639-14.471l7.612-2.224c1.055,6.155,3.731,9.232,8.027,9.232
						c1.809,0,3.241-0.552,4.296-1.658c1.055-1.08,1.583-2.487,1.583-4.221c0-1.809-0.666-3.467-1.997-4.975
						c-1.106-1.281-2.99-2.964-5.653-5.049c-3.869-3.016-6.193-4.899-6.972-5.653c-3.568-3.441-5.351-7.197-5.351-11.268
						c0-4.045,1.444-7.248,4.333-9.609c2.437-2.035,5.464-3.053,9.082-3.053C279.92,543.413,284.731,547.697,286.942,556.263z"/>
				</g>
			</g>
			<g>
				<g>
					<path fill="#87281B" d="M400.705,556.263l-7.612,2.261c-1.231-5.1-3.518-7.649-6.859-7.649c-1.432,0-2.638,0.478-3.617,1.432
						c-1.031,1.005-1.545,2.274-1.545,3.807c0,1.884,0.716,3.605,2.148,5.162c0.929,1.006,3.203,2.89,6.821,5.653
						c3.693,2.863,6.256,5.162,7.688,6.896c2.211,2.688,3.316,5.841,3.316,9.458c0,3.794-1.269,6.909-3.807,9.346
						c-2.588,2.487-6.017,3.731-10.287,3.731c-8.794,0-14.007-4.824-15.64-14.471l7.612-2.224c1.055,6.155,3.731,9.232,8.027,9.232
						c1.809,0,3.24-0.552,4.296-1.658c1.055-1.08,1.583-2.487,1.583-4.221c0-1.809-0.666-3.467-1.998-4.975
						c-1.105-1.281-2.99-2.964-5.652-5.049c-3.869-3.016-6.193-4.899-6.972-5.653c-3.568-3.441-5.351-7.197-5.351-11.268
						c0-4.045,1.444-7.248,4.333-9.609c2.437-2.035,5.464-3.053,9.082-3.053C393.682,543.413,398.494,547.697,400.705,556.263z"/>
				</g>
				<g>
					<path fill="#87281B" d="M432.842,544.167v7.349h-15.338v13.528h11.306v7.349h-11.306v15.865h15.338v7.349h-23.327v-51.439
						H432.842z"/>
				</g>
			</g>
			<g>
				<g>
					<path fill="#87281B" d="M468.731,560.898h-7.951c0-0.477,0-0.829,0-1.055c0-5.979-2.011-8.969-6.03-8.969
						c-2.186,0-3.756,0.842-4.71,2.524c-0.578,1.056-0.93,2.186-1.056,3.392c-0.101,1.156-0.15,2.487-0.15,3.995v17.108
						c0,3.593,0.288,6.155,0.866,7.688c0.854,2.211,2.575,3.316,5.163,3.316c4.095,0,6.143-3.366,6.143-10.1
						c0-0.301,0-0.729,0-1.281h7.951c0.025,0.88,0.038,1.521,0.038,1.922c0,4.975-1.005,8.919-3.015,11.833
						c-2.362,3.392-6.067,5.088-11.117,5.088c-5.351,0-9.195-1.909-11.531-5.729c-1.231-1.984-1.96-4.183-2.186-6.595
						c-0.201-2.01-0.302-4.421-0.302-7.235v-14.357c0-4.924,0.313-8.341,0.942-10.251c1.104-3.416,3.114-5.841,6.029-7.272
						c2.01-1.005,4.32-1.508,6.934-1.508c4.372,0,7.775,1.345,10.213,4.032c2.537,2.814,3.807,6.746,3.807,11.796
						C468.769,559.642,468.755,560.196,468.731,560.898z"/>
				</g>
			</g>
			<g>
				<g>
					<path fill="#87281B" d="M497.943,544.167h7.989v34.858c0,4.146-0.365,7.223-1.093,9.232c-1.96,5.402-6.131,8.103-12.512,8.103
						c-4.748,0-8.291-1.545-10.627-4.636c-1.356-1.783-2.199-3.78-2.525-5.991c-0.301-1.984-0.452-4.221-0.452-6.708v-34.858h7.989
						v36.14c0,2.914,0.377,5.012,1.131,6.293c0.904,1.533,2.398,2.299,4.484,2.299c2.085,0,3.58-0.766,4.484-2.299
						c0.754-1.256,1.131-3.354,1.131-6.293V544.167z"/>
				</g>
			</g>
			<g>
				<g>
					<path fill="#87281B" d="M524.761,574.503v21.104h-7.989v-51.439h12.512c4.421,0,7.813,1.03,10.175,3.09
						c3.064,2.663,4.598,6.545,4.598,11.645c0,6.532-2.312,10.992-6.935,13.378l7.575,23.327h-8.366l-6.821-21.104H524.761z
						 M524.761,567.154h2.902c2.186,0,3.742-0.2,4.673-0.603c2.336-1.005,3.504-3.417,3.504-7.235c0-2.813-0.653-4.861-1.959-6.143
						c-0.754-0.778-1.671-1.256-2.751-1.433c-0.955-0.15-2.11-0.226-3.467-0.226h-2.902V567.154z"/>
				</g>
			</g>
			<g>
				<g>
					<path fill="#87281B" d="M640.144,544.167v51.439h-7.989v-51.439H640.144z"/>
				</g>
			</g>
			<g>
				<g>
					<path fill="#87281B" d="M669.342,595.606h-9.873l-11.042-51.439h8.215l7.764,39.116l6.783-39.116h8.064L669.342,595.606z"/>
				</g>
				<g>
					<path fill="#87281B" d="M710.751,544.167v7.349h-15.338v13.528h11.306v7.349h-11.306v15.865h15.338v7.349h-23.327v-51.439
						H710.751z"/>
				</g>
			</g>
			<g>
				<g>
					<path fill="#87281B" d="M746.312,556.263l-7.612,2.261c-1.231-5.1-3.518-7.649-6.859-7.649c-1.432,0-2.638,0.478-3.617,1.432
						c-1.03,1.005-1.545,2.274-1.545,3.807c0,1.884,0.716,3.605,2.147,5.162c0.93,1.006,3.203,2.89,6.821,5.653
						c3.693,2.863,6.256,5.162,7.688,6.896c2.211,2.688,3.316,5.841,3.316,9.458c0,3.794-1.269,6.909-3.807,9.346
						c-2.588,2.487-6.017,3.731-10.287,3.731c-8.794,0-14.007-4.824-15.64-14.471l7.612-2.224c1.056,6.155,3.73,9.232,8.027,9.232
						c1.809,0,3.24-0.552,4.296-1.658c1.055-1.08,1.583-2.487,1.583-4.221c0-1.809-0.666-3.467-1.998-4.975
						c-1.105-1.281-2.99-2.964-5.652-5.049c-3.869-3.016-6.193-4.899-6.972-5.653c-3.567-3.441-5.352-7.197-5.352-11.268
						c0-4.045,1.444-7.248,4.334-9.609c2.437-2.035,5.464-3.053,9.082-3.053C739.29,543.413,744.101,547.697,746.312,556.263z"/>
				</g>
			</g>
		</g>
	</g>
	<polygon clip-path="url(#SVGID_2_)" fill="#306068" points="726.762,492.043 631.281,492.005 631.348,312.445 609.015,312.437 
		609.037,235.245 631.378,235.252 631.408,159.724 726.889,159.761 726.867,235.289 758.453,235.304 758.415,312.497 
		726.829,312.482 	"/>
	<polygon clip-path="url(#SVGID_2_)" fill="#306068" points="235.437,493.057 1.3,492.96 1.479,74.39 118.585,74.442 
		118.451,385.376 235.482,385.413 	"/>
	<g clip-path="url(#SVGID_2_)">
		<defs>
			<rect id="SVGID_3_" x="-21.705" y="-32.775" width="803.845" height="660.526"/>
		</defs>
		<clipPath id="SVGID_4_">
			<use xlink:href="#SVGID_3_"  overflow="visible"/>
		</clipPath>
		<path clip-path="url(#SVGID_4_)" fill="#306068" d="M562.071,492.043l-95.504-0.037l0.067-179.613l-19.266-0.007l0.03-77.222
			l19.259,0.015l0.022-47.278c0.015-33.108,7.201-58.21,21.58-75.305c14.379-17.11,35.458-25.646,63.254-25.639
			c13.789,0.008,34.772,2.224,50.919,6.671l-0.03,88.385c-8.395-6.022-20.893-9.036-25.475-9.044
			c-9.827,0-14.737,8.79-14.745,26.363l-0.007,35.884l24.721,0.007l-0.03,77.222l-24.729-0.015L562.071,492.043z"/>
	</g>
	<path clip-path="url(#SVGID_2_)" fill="#306068" d="M386.873,260.404v-0.597h0.522c0,0,0.895-61.485,0.231-76.387
		c6.052-7.917,29.146,21.087,34.966,42.965c2.433,9.178,3.32,19.042,3.082,28.802c0.5,16.028-1.985,43.876-33.22,78.2
		c-23.139,25.415-18.468,75.857-18.468,128.567v30.086h-49.524v-196.91L386.873,260.404z"/>
	<path clip-path="url(#SVGID_2_)" fill="#306068" d="M274.337,260.404v-0.597h-0.522c0,0-0.903-61.485-0.231-76.387
		c-6.051-7.917-29.146,21.087-34.966,42.965c-2.433,9.178-3.32,19.042-3.082,28.802c-0.5,16.028,1.985,43.876,33.22,78.2
		c23.139,25.415,18.468,75.857,18.468,128.567v30.086h49.524v-196.91L274.337,260.404z"/>
	<polygon clip-path="url(#SVGID_2_)" fill="#306068" points="284.575,151.474 330.756,124.813 376.945,151.474 376.945,204.804 
		330.756,231.465 284.575,204.804 	"/>
	<path clip-path="url(#SVGID_2_)" fill="#131827" d="M286.22,492.036V396.42c0,0,5.902-24.848-26.691-72.835
		c-12.028-17.722,41.473,21.095,41.473,62.791v105.667L286.22,492.036z"/>
	<path clip-path="url(#SVGID_2_)" fill="#86B2C2" d="M375.281,492.036V396.42c0,0-5.902-24.848,26.691-72.835
		c12.028-17.722-41.473,21.095-41.473,62.791v105.667L375.281,492.036z"/>
	<rect x="-0.103" y="516.16" clip-path="url(#SVGID_2_)" fill="#87281B" width="751.911" height="13.521"/>
	<rect x="-0.103" y="609.328" clip-path="url(#SVGID_2_)" fill="#87281B" width="751.911" height="13.521"/>
	<polygon clip-path="url(#SVGID_2_)" fill="#306068" points="342.519,578.804 329.229,586.482 315.932,578.804 315.932,563.455 
		329.229,555.785 342.519,563.455 	"/>
</g>
</svg>
